# MagicaVoxel @ Ephtracy

# group
o 

# material
mtllib Arm_U.mtl
usemtl palette

# normals
vn -1 0 0
vn 1 0 0
vn 0 0 1
vn 0 0 -1
vn 0 -1 0
vn 0 1 0

# texcoords
vt 0.486328 0.5
vt 0.556641 0.5

# verts
v -1.7 6.1 0.3
v -1.7 6.1 0
v -1.7 6.4 0.3
v -1.7 6.4 0.1
v -1.7 6.4 0
v -1.7 6.5 0.3
v -1.7 6.5 0.1
v -1.6 6 0.3
v -1.6 6 -0.1
v -1.6 6.1 0.4
v -1.6 6.1 0.3
v -1.6 6.1 0
v -1.6 6.4 0.4
v -1.6 6.4 0.3
v -1.6 6.4 0.1
v -1.6 6.4 0
v -1.6 6.4 -0.1
v -1.6 6.5 0.3
v -1.6 6.5 0.1
v -1.6 6.5 0
v -1.6 6.5 -0.1
v -1.6 6.6 0
v -1.6 6.6 -0.1
v -1.6 6.7 0.3
v -1.6 6.7 0
v -1.5 6.4 0.4
v -1.5 6.4 0.3
v -1.5 6.6 0
v -1.5 6.6 -0.1
v -1.5 6.7 0.3
v -1.5 6.7 0
v -1.5 6.9 0.4
v -1.5 6.9 0.3
v -1.5 6.9 0
v -1.5 6.9 -0.1
v -1.5 7 0.3
v -1.5 7 0
v -1.4 6.9 0.4
v -1.4 6.9 0.3
v -1.4 6.9 0
v -1.4 6.9 -0.1
v -1.4 7 0.4
v -1.4 7 0.3
v -1.4 7 0
v -1.4 7 -0.1
v -1.2 6 0.3
v -1.2 6 -0.1
v -1.2 6.1 0.4
v -1.2 6.1 0.3
v -1.2 6.1 0
v -1.2 6.3 0.3
v -1.2 6.3 0
v -1.2 6.4 0.4
v -1.2 6.4 0.3
v -1.2 6.4 0
v -1.2 6.4 -0.1
v -1.1 6.1 0.3
v -1.1 6.1 0
v -1.1 6.2 0.2
v -1.1 6.2 0.1
v -1.1 6.3 0.3
v -1.1 6.3 0.2
v -1.1 6.3 0.1
v -1.1 6.3 0
v -1.1 6.4 0.4
v -1.1 6.4 0.3
v -1.1 6.4 0
v -1.1 6.5 0.4
v -1.1 6.5 0.3
v -1 6.4 0
v -1 6.4 -0.1
v -1 6.5 0.4
v -1 6.5 0.3
v -1 6.5 0
v -1 6.5 -0.1
v -1 6.6 0.3
v -1 6.6 0
v -1 6.9 0.3
v -1 6.9 0
v -1 7 0.4
v -1 7 -0.1
v -0.9 6.4 0.3
v -0.9 6.4 0
v -0.9 6.6 0.3
v -0.9 6.6 0
v -0.9 6.9 0.3
v -0.9 6.9 0
v -1.6 6.1 0.4
v -1.6 6.4 0.4
v -1.5 6.4 0.4
v -1.5 6.9 0.4
v -1.4 6.9 0.4
v -1.4 7 0.4
v -1.2 6.1 0.4
v -1.2 6.4 0.4
v -1.1 6.4 0.4
v -1.1 6.5 0.4
v -1 6.5 0.4
v -1 7 0.4
v -1.7 6.1 0.3
v -1.7 6.4 0.3
v -1.7 6.5 0.3
v -1.6 6 0.3
v -1.6 6.1 0.3
v -1.6 6.4 0.3
v -1.6 6.5 0.3
v -1.6 6.7 0.3
v -1.5 6.4 0.3
v -1.5 6.7 0.3
v -1.5 6.9 0.3
v -1.5 7 0.3
v -1.4 6.9 0.3
v -1.4 7 0.3
v -1.2 6 0.3
v -1.2 6.1 0.3
v -1.2 6.3 0.3
v -1.2 6.4 0.3
v -1.1 6.1 0.3
v -1.1 6.3 0.3
v -1.1 6.4 0.3
v -1.1 6.5 0.3
v -1 6.5 0.3
v -1 6.6 0.3
v -1 6.9 0.3
v -0.9 6.4 0.3
v -0.9 6.6 0.3
v -0.9 6.9 0.3
v -1.7 6.4 0.1
v -1.7 6.5 0.1
v -1.6 6.4 0.1
v -1.6 6.5 0.1
v -1.7 6.1 0
v -1.7 6.4 0
v -1.6 6.1 0
v -1.6 6.4 0
v -1.6 6.6 0
v -1.6 6.7 0
v -1.5 6.6 0
v -1.5 6.7 0
v -1.5 6.9 0
v -1.5 7 0
v -1.4 6.9 0
v -1.4 7 0
v -1.2 6.1 0
v -1.2 6.3 0
v -1.2 6.4 0
v -1.1 6.1 0
v -1.1 6.3 0
v -1.1 6.4 0
v -1 6.4 0
v -1 6.5 0
v -1 6.6 0
v -1 6.9 0
v -0.9 6.4 0
v -0.9 6.6 0
v -0.9 6.9 0
v -1.6 6 -0.1
v -1.6 6.4 -0.1
v -1.6 6.5 -0.1
v -1.6 6.6 -0.1
v -1.5 6.4 -0.1
v -1.5 6.5 -0.1
v -1.5 6.6 -0.1
v -1.5 6.9 -0.1
v -1.4 6.9 -0.1
v -1.4 7 -0.1
v -1.2 6 -0.1
v -1.2 6.4 -0.1
v -1.1 6.4 -0.1
v -1.1 6.5 -0.1
v -1 6.4 -0.1
v -1 6.5 -0.1
v -1 7 -0.1
v -1.6 6 0.3
v -1.2 6 0.3
v -1.6 6 -0.1
v -1.2 6 -0.1
v -1.6 6.1 0.4
v -1.2 6.1 0.4
v -1.7 6.1 0.3
v -1.6 6.1 0.3
v -1.2 6.1 0.3
v -1.1 6.1 0.3
v -1.7 6.1 0
v -1.6 6.1 0
v -1.2 6.1 0
v -1.1 6.1 0
v -1.2 6.4 0.4
v -1.1 6.4 0.4
v -1.2 6.4 0.3
v -1.1 6.4 0.3
v -0.9 6.4 0.3
v -1.2 6.4 0
v -1.1 6.4 0
v -1 6.4 0
v -0.9 6.4 0
v -1.2 6.4 -0.1
v -1.1 6.4 -0.1
v -1 6.4 -0.1
v -1.1 6.5 0.4
v -1 6.5 0.4
v -1.1 6.5 0.3
v -1 6.5 0.3
v -1.6 6.4 0.4
v -1.5 6.4 0.4
v -1.6 6.4 0.3
v -1.5 6.4 0.3
v -1.7 6.4 0.1
v -1.6 6.4 0.1
v -1.7 6.4 0
v -1.6 6.4 0
v -1.7 6.5 0.3
v -1.6 6.5 0.3
v -1.7 6.5 0.1
v -1.6 6.5 0.1
v -1.6 6.6 0
v -1.5 6.6 0
v -1.6 6.6 -0.1
v -1.5 6.6 -0.1
v -1.6 6.7 0.3
v -1.5 6.7 0.3
v -1.6 6.7 0
v -1.5 6.7 0
v -1.5 6.9 0.4
v -1.4 6.9 0.4
v -1.5 6.9 0.3
v -1.4 6.9 0.3
v -1 6.9 0.3
v -0.9 6.9 0.3
v -1.5 6.9 0
v -1.4 6.9 0
v -1 6.9 0
v -0.9 6.9 0
v -1.5 6.9 -0.1
v -1.4 6.9 -0.1
v -1.4 7 0.4
v -1 7 0.4
v -1.5 7 0.3
v -1.4 7 0.3
v -1.5 7 0
v -1.4 7 0
v -1.4 7 -0.1
v -1 7 -0.1

# faces
f 3/1/1 2/1/1 1/1/1
f 4/1/1 2/1/1 3/1/1
f 5/1/1 2/1/1 4/1/1
f 6/2/1 4/2/1 3/2/1
f 7/2/1 4/2/1 6/2/1
f 11/1/1 9/1/1 8/1/1
f 12/1/1 9/1/1 11/1/1
f 13/1/1 11/1/1 10/1/1
f 14/1/1 11/1/1 13/1/1
f 16/1/1 9/1/1 12/1/1
f 17/1/1 9/1/1 16/1/1
f 19/1/1 16/1/1 15/1/1
f 20/2/1 17/2/1 16/2/1
f 20/1/1 16/1/1 19/1/1
f 21/2/1 17/2/1 20/2/1
f 22/1/1 19/1/1 18/1/1
f 22/1/1 20/1/1 19/1/1
f 22/1/1 21/1/1 20/1/1
f 23/1/1 21/1/1 22/1/1
f 24/1/1 22/1/1 18/1/1
f 25/1/1 22/1/1 24/1/1
f 30/1/1 27/1/1 26/1/1
f 31/1/1 29/1/1 28/1/1
f 32/1/1 30/1/1 26/1/1
f 32/1/1 31/1/1 30/1/1
f 33/1/1 31/1/1 32/1/1
f 34/1/1 29/1/1 31/1/1
f 34/1/1 31/1/1 33/1/1
f 35/1/1 29/1/1 34/1/1
f 36/1/1 34/1/1 33/1/1
f 37/1/1 34/1/1 36/1/1
f 42/1/1 39/1/1 38/1/1
f 43/1/1 39/1/1 42/1/1
f 44/1/1 41/1/1 40/1/1
f 45/1/1 41/1/1 44/1/1
f 46/1/2 47/1/2 49/1/2
f 49/1/2 47/1/2 50/1/2
f 48/1/2 49/1/2 51/1/2
f 50/1/2 47/1/2 52/1/2
f 48/1/2 51/1/2 53/1/2
f 53/1/2 51/1/2 54/1/2
f 52/1/2 47/1/2 55/1/2
f 55/1/2 47/1/2 56/1/2
f 57/1/2 58/1/2 59/1/2
f 59/1/2 58/1/2 60/1/2
f 57/1/2 59/1/2 61/1/2
f 59/2/2 60/2/2 62/2/2
f 61/1/2 59/1/2 62/1/2
f 60/1/2 58/1/2 63/1/2
f 62/2/2 60/2/2 63/2/2
f 63/1/2 58/1/2 64/1/2
f 61/2/2 62/2/2 66/2/2
f 62/2/2 63/2/2 66/2/2
f 63/2/2 64/2/2 66/2/2
f 66/2/2 64/2/2 67/2/2
f 65/1/2 66/1/2 68/1/2
f 68/1/2 66/1/2 69/1/2
f 70/2/2 71/2/2 74/2/2
f 74/2/2 71/2/2 75/2/2
f 72/1/2 73/1/2 76/1/2
f 74/1/2 75/1/2 77/1/2
f 72/1/2 76/1/2 78/1/2
f 77/1/2 75/1/2 79/1/2
f 72/1/2 78/1/2 80/1/2
f 78/1/2 79/1/2 80/1/2
f 79/1/2 75/1/2 81/1/2
f 80/1/2 79/1/2 81/1/2
f 82/2/2 83/2/2 84/2/2
f 84/2/2 83/2/2 85/2/2
f 84/1/2 85/1/2 86/1/2
f 86/1/2 85/1/2 87/1/2
f 90/1/3 89/1/3 88/1/3
f 92/1/3 91/1/3 90/1/3
f 94/1/3 90/1/3 88/1/3
f 94/1/3 93/1/3 92/1/3
f 94/1/3 92/1/3 90/1/3
f 95/1/3 93/1/3 94/1/3
f 96/1/3 93/1/3 95/1/3
f 97/1/3 93/1/3 96/1/3
f 98/1/3 93/1/3 97/1/3
f 99/1/3 93/1/3 98/1/3
f 104/1/3 101/1/3 100/1/3
f 105/2/3 102/2/3 101/2/3
f 105/1/3 101/1/3 104/1/3
f 106/2/3 102/2/3 105/2/3
f 108/1/3 107/1/3 106/1/3
f 108/1/3 106/1/3 105/1/3
f 109/1/3 107/1/3 108/1/3
f 112/1/3 111/1/3 110/1/3
f 113/1/3 111/1/3 112/1/3
f 114/1/3 104/1/3 103/1/3
f 115/1/3 104/1/3 114/1/3
f 118/1/3 116/1/3 115/1/3
f 119/2/3 117/2/3 116/2/3
f 119/1/3 116/1/3 118/1/3
f 120/2/3 117/2/3 119/2/3
f 122/2/3 121/2/3 120/2/3
f 125/2/3 122/2/3 120/2/3
f 125/2/3 123/2/3 122/2/3
f 126/1/3 124/1/3 123/1/3
f 126/2/3 123/2/3 125/2/3
f 127/1/3 124/1/3 126/1/3
f 128/2/4 129/2/4 130/2/4
f 130/2/4 129/2/4 131/2/4
f 132/1/4 133/1/4 134/1/4
f 134/1/4 133/1/4 135/1/4
f 136/1/4 137/1/4 138/1/4
f 138/1/4 137/1/4 139/1/4
f 140/1/4 141/1/4 142/1/4
f 142/1/4 141/1/4 143/1/4
f 144/1/4 145/1/4 147/1/4
f 145/2/4 146/2/4 148/2/4
f 147/1/4 145/1/4 148/1/4
f 148/2/4 146/2/4 149/2/4
f 150/2/4 151/2/4 154/2/4
f 151/2/4 152/2/4 154/2/4
f 152/1/4 153/1/4 155/1/4
f 154/2/4 152/2/4 155/2/4
f 155/1/4 153/1/4 156/1/4
f 157/1/4 158/1/4 161/1/4
f 158/2/4 159/2/4 161/2/4
f 159/1/4 160/1/4 162/1/4
f 161/2/4 159/2/4 162/2/4
f 162/1/4 160/1/4 163/1/4
f 161/1/4 162/1/4 165/1/4
f 163/1/4 164/1/4 165/1/4
f 162/1/4 163/1/4 165/1/4
f 157/1/4 161/1/4 167/1/4
f 165/1/4 166/1/4 167/1/4
f 161/1/4 165/1/4 167/1/4
f 167/1/4 166/1/4 168/1/4
f 168/1/4 166/1/4 169/1/4
f 169/1/4 166/1/4 170/1/4
f 169/2/4 170/2/4 171/2/4
f 170/1/4 166/1/4 172/1/4
f 171/2/4 170/2/4 172/2/4
f 172/1/4 166/1/4 173/1/4
f 176/1/5 175/1/5 174/1/5
f 177/1/5 175/1/5 176/1/5
f 181/1/5 179/1/5 178/1/5
f 182/1/5 179/1/5 181/1/5
f 184/1/5 181/1/5 180/1/5
f 185/1/5 181/1/5 184/1/5
f 186/1/5 183/1/5 182/1/5
f 187/1/5 183/1/5 186/1/5
f 190/1/5 189/1/5 188/1/5
f 191/1/5 189/1/5 190/1/5
f 194/2/5 192/2/5 191/2/5
f 195/2/5 192/2/5 194/2/5
f 196/2/5 192/2/5 195/2/5
f 197/1/5 194/1/5 193/1/5
f 198/2/5 195/2/5 194/2/5
f 198/1/5 194/1/5 197/1/5
f 199/2/5 195/2/5 198/2/5
f 202/1/5 201/1/5 200/1/5
f 203/1/5 201/1/5 202/1/5
f 204/1/6 205/1/6 206/1/6
f 206/1/6 205/1/6 207/1/6
f 208/1/6 209/1/6 210/1/6
f 210/1/6 209/1/6 211/1/6
f 212/2/6 213/2/6 214/2/6
f 214/2/6 213/2/6 215/2/6
f 216/1/6 217/1/6 218/1/6
f 218/1/6 217/1/6 219/1/6
f 220/1/6 221/1/6 222/1/6
f 222/1/6 221/1/6 223/1/6
f 224/1/6 225/1/6 226/1/6
f 226/1/6 225/1/6 227/1/6
f 228/1/6 229/1/6 232/1/6
f 232/1/6 229/1/6 233/1/6
f 230/1/6 231/1/6 234/1/6
f 234/1/6 231/1/6 235/1/6
f 236/1/6 237/1/6 239/1/6
f 238/1/6 239/1/6 240/1/6
f 239/1/6 237/1/6 241/1/6
f 240/1/6 239/1/6 241/1/6
f 241/1/6 237/1/6 242/1/6
f 242/1/6 237/1/6 243/1/6
