# MagicaVoxel @ Ephtracy

# group
o 

# material
mtllib Root.mtl
usemtl palette

# normals
vn -1 0 0
vn 1 0 0
vn 0 0 1
vn 0 0 -1
vn 0 -1 0
vn 0 1 0

# texcoords
vt 0.00195312 0.5
vt 0.302734 0.5
vt 0.458984 0.5
vt 0.517578 0.5
vt 0.521484 0.5
vt 0.525391 0.5
vt 0.529297 0.5

# verts
v -0.9 5 0.3
v -0.9 5 -0.1
v -0.9 5.2 0.3
v -0.9 5.2 -0.1
v -0.8 4.4 0.3
v -0.8 4.4 -0.1
v -0.8 4.5 0.3
v -0.8 4.5 0.1
v -0.8 4.5 -0.1
v -0.8 4.5 -0.2
v -0.8 4.6 0.3
v -0.8 4.6 0.1
v -0.8 4.6 0
v -0.8 4.9 0.2
v -0.8 4.9 0.1
v -0.8 4.9 0
v -0.8 5 0.4
v -0.8 5 0.3
v -0.8 5 0.2
v -0.8 5 0.1
v -0.8 5 -0.1
v -0.8 5 -0.2
v -0.8 5.2 0.4
v -0.8 5.2 0.3
v -0.8 5.2 -0.1
v -0.8 5.2 -0.2
v -0.7 4.4 -0.1
v -0.7 4.4 -0.3
v -0.7 4.5 -0.1
v -0.7 4.5 -0.2
v -0.7 4.6 0.4
v -0.7 4.6 0.3
v -0.7 4.7 0.4
v -0.7 4.7 0.3
v -0.7 4.9 0.4
v -0.7 4.9 0.3
v -0.7 5 0.4
v -0.7 5 0.3
v -0.7 5 -0.2
v -0.7 5 -0.3
v -0.7 5.1 -0.2
v -0.7 5.1 -0.3
v -0.6 4.7 0.4
v -0.6 4.7 0.3
v -0.6 4.9 0.4
v -0.6 4.9 0.3
v 0.7 5 0.5
v 0.7 5 0.4
v 0.7 5.2 0.5
v 0.7 5.2 0.4
v 0.6 4.7 0.4
v 0.6 4.7 0.3
v 0.6 4.9 0.4
v 0.6 4.9 0.3
v 0.7 4.4 -0.1
v 0.7 4.4 -0.3
v 0.7 4.5 -0.1
v 0.7 4.5 -0.2
v 0.7 4.6 0.4
v 0.7 4.6 0.3
v 0.7 4.7 0.4
v 0.7 4.7 0.3
v 0.7 4.9 0.4
v 0.7 4.9 0.3
v 0.7 5 0.4
v 0.7 5 0.3
v 0.7 5 -0.2
v 0.7 5 -0.3
v 0.7 5.1 -0.2
v 0.7 5.1 -0.3
v 0.8 4.4 0.3
v 0.8 4.4 -0.1
v 0.8 4.5 0.3
v 0.8 4.5 0.1
v 0.8 4.5 -0.1
v 0.8 4.5 -0.2
v 0.8 4.6 0.3
v 0.8 4.6 0.1
v 0.8 4.6 0
v 0.8 4.9 0.2
v 0.8 4.9 0.1
v 0.8 4.9 0
v 0.8 5 0.5
v 0.8 5 0.4
v 0.8 5 0.3
v 0.8 5 0.2
v 0.8 5 0.1
v 0.8 5 -0.1
v 0.8 5 -0.2
v 0.8 5.2 0.5
v 0.8 5.2 0.4
v 0.9 5 0.4
v 0.9 5 0.3
v 0.9 5 -0.1
v 0.9 5 -0.2
v 0.9 5.1 0.4
v 0.9 5.1 0.3
v 0.9 5.2 -0.1
v 0.9 5.2 -0.2
v 1 5 0.3
v 1 5 -0.1
v 1 5.1 0.4
v 1 5.1 0.3
v 1 5.2 0.4
v 1 5.2 -0.1
v 0.7 5 0.5
v 0.7 5.2 0.5
v 0.8 5 0.5
v 0.8 5.2 0.5
v -0.8 5 0.4
v -0.8 5.2 0.4
v -0.7 4.6 0.4
v -0.7 4.7 0.4
v -0.7 4.9 0.4
v -0.7 5 0.4
v -0.6 4.6 0.4
v -0.6 4.7 0.4
v -0.6 4.9 0.4
v -0.6 5 0.4
v -0.5 4.7 0.4
v -0.5 4.9 0.4
v -0.2 4.9 0.4
v -0.2 5.1 0.4
v 0.1 4.9 0.4
v 0.1 5.1 0.4
v 0.2 4.9 0.4
v 0.2 5.1 0.4
v 0.5 4.7 0.4
v 0.5 4.9 0.4
v 0.6 4.6 0.4
v 0.6 4.7 0.4
v 0.6 4.9 0.4
v 0.6 5 0.4
v 0.7 4.6 0.4
v 0.7 4.7 0.4
v 0.7 4.9 0.4
v 0.7 5 0.4
v 0.7 5.2 0.4
v 0.8 5 0.4
v 0.8 5.2 0.4
v 0.9 5 0.4
v 0.9 5.1 0.4
v 1 5.1 0.4
v 1 5.2 0.4
v -0.9 5 0.3
v -0.9 5.2 0.3
v -0.8 4.4 0.3
v -0.8 4.5 0.3
v -0.8 4.6 0.3
v -0.8 5 0.3
v -0.8 5.2 0.3
v -0.7 4.6 0.3
v -0.7 4.7 0.3
v -0.7 4.9 0.3
v -0.7 5 0.3
v -0.6 4.5 0.3
v -0.6 4.6 0.3
v -0.6 4.7 0.3
v -0.6 4.9 0.3
v 0.6 4.5 0.3
v 0.6 4.6 0.3
v 0.6 4.7 0.3
v 0.6 4.9 0.3
v 0.7 4.6 0.3
v 0.7 4.7 0.3
v 0.7 4.9 0.3
v 0.7 5 0.3
v 0.8 4.4 0.3
v 0.8 4.5 0.3
v 0.8 4.6 0.3
v 0.8 5 0.3
v 0.9 5 0.3
v 0.9 5.1 0.3
v 1 5 0.3
v 1 5.1 0.3
v -0.9 5 -0.1
v -0.9 5.2 -0.1
v -0.8 4.4 -0.1
v -0.8 4.5 -0.1
v -0.8 5 -0.1
v -0.8 5.2 -0.1
v -0.7 4.4 -0.1
v -0.7 4.5 -0.1
v 0.7 4.4 -0.1
v 0.7 4.5 -0.1
v 0.8 4.4 -0.1
v 0.8 4.5 -0.1
v 0.9 5 -0.1
v 0.9 5.2 -0.1
v 1 5 -0.1
v 1 5.2 -0.1
v -0.8 4.5 -0.2
v -0.8 5 -0.2
v -0.8 5.2 -0.2
v -0.7 4.5 -0.2
v -0.7 5 -0.2
v -0.7 5.1 -0.2
v 0.7 4.5 -0.2
v 0.7 5 -0.2
v 0.7 5.1 -0.2
v 0.8 4.5 -0.2
v 0.8 5 -0.2
v 0.8 5.2 -0.2
v 0.9 5 -0.2
v 0.9 5.2 -0.2
v -0.7 4.4 -0.3
v -0.7 5 -0.3
v -0.7 5.1 -0.3
v 0.7 4.4 -0.3
v 0.7 5 -0.3
v 0.7 5.1 -0.3
v -0.8 4.4 0.3
v 0.8 4.4 0.3
v -0.8 4.4 -0.1
v -0.7 4.4 -0.1
v 0.7 4.4 -0.1
v 0.8 4.4 -0.1
v -0.7 4.4 -0.3
v 0.7 4.4 -0.3
v -0.8 4.5 -0.1
v -0.7 4.5 -0.1
v 0.7 4.5 -0.1
v 0.8 4.5 -0.1
v -0.8 4.5 -0.2
v -0.7 4.5 -0.2
v 0.7 4.5 -0.2
v 0.8 4.5 -0.2
v -0.7 4.6 0.4
v -0.6 4.6 0.4
v 0.6 4.6 0.4
v 0.7 4.6 0.4
v -0.7 4.6 0.3
v -0.6 4.6 0.3
v 0.6 4.6 0.3
v 0.7 4.6 0.3
v -0.7 4.9 0.4
v -0.6 4.9 0.4
v 0.6 4.9 0.4
v 0.7 4.9 0.4
v -0.7 4.9 0.3
v -0.6 4.9 0.3
v 0.6 4.9 0.3
v 0.7 4.9 0.3
v 0.7 5 0.5
v 0.8 5 0.5
v -0.8 5 0.4
v -0.7 5 0.4
v 0.7 5 0.4
v 0.8 5 0.4
v 0.9 5 0.4
v -0.9 5 0.3
v -0.8 5 0.3
v -0.7 5 0.3
v 0.7 5 0.3
v 0.8 5 0.3
v 0.9 5 0.3
v 1 5 0.3
v -0.8 5 0.2
v 0.8 5 0.2
v -0.8 5 0.1
v 0.8 5 0.1
v -0.9 5 -0.1
v -0.8 5 -0.1
v 0.8 5 -0.1
v 0.9 5 -0.1
v 1 5 -0.1
v 0.8 5 -0.2
v 0.9 5 -0.2
v 0.9 5.1 0.4
v 1 5.1 0.4
v 0.9 5.1 0.3
v 1 5.1 0.3
v -0.7 4.7 0.4
v -0.6 4.7 0.4
v 0.6 4.7 0.4
v 0.7 4.7 0.4
v -0.7 4.7 0.3
v -0.6 4.7 0.3
v 0.6 4.7 0.3
v 0.7 4.7 0.3
v -0.7 5.1 -0.2
v 0.7 5.1 -0.2
v -0.7 5.1 -0.3
v 0.7 5.1 -0.3
v 0.7 5.2 0.5
v 0.8 5.2 0.5
v -0.8 5.2 0.4
v 0.7 5.2 0.4
v 0.8 5.2 0.4
v 1 5.2 0.4
v -0.9 5.2 0.3
v -0.8 5.2 0.3
v 0.8 5.2 0.3
v 0.9 5.2 0.3
v -0.9 5.2 -0.1
v -0.8 5.2 -0.1
v 0.8 5.2 -0.1
v 0.9 5.2 -0.1
v 1 5.2 -0.1
v -0.8 5.2 -0.2
v 0.8 5.2 -0.2
v 0.9 5.2 -0.2

# faces
f 3/4/1 2/4/1 1/4/1
f 4/4/1 2/4/1 3/4/1
f 7/2/1 6/2/1 5/2/1
f 8/2/1 6/2/1 7/2/1
f 9/2/1 6/2/1 8/2/1
f 11/6/1 8/6/1 7/6/1
f 12/2/1 10/2/1 9/2/1
f 12/6/1 8/6/1 11/6/1
f 12/2/1 9/2/1 8/2/1
f 13/2/1 10/2/1 12/2/1
f 14/7/1 12/7/1 11/7/1
f 15/6/1 13/6/1 12/6/1
f 15/7/1 12/7/1 14/7/1
f 16/2/1 10/2/1 13/2/1
f 16/6/1 13/6/1 15/6/1
f 18/7/1 14/7/1 11/7/1
f 19/6/1 15/6/1 14/6/1
f 19/7/1 14/7/1 18/7/1
f 20/2/1 16/2/1 15/2/1
f 20/6/1 15/6/1 19/6/1
f 21/2/1 10/2/1 16/2/1
f 21/2/1 16/2/1 20/2/1
f 22/2/1 10/2/1 21/2/1
f 23/4/1 18/4/1 17/4/1
f 24/4/1 18/4/1 23/4/1
f 25/4/1 22/4/1 21/4/1
f 26/4/1 22/4/1 25/4/1
f 29/2/1 28/2/1 27/2/1
f 30/2/1 28/2/1 29/2/1
f 33/6/1 32/6/1 31/6/1
f 34/6/1 32/6/1 33/6/1
f 37/6/1 36/6/1 35/6/1
f 38/6/1 36/6/1 37/6/1
f 39/2/1 28/2/1 30/2/1
f 40/2/1 28/2/1 39/2/1
f 41/4/1 40/4/1 39/4/1
f 42/4/1 40/4/1 41/4/1
f 45/6/1 44/6/1 43/6/1
f 46/6/1 44/6/1 45/6/1
f 49/3/1 48/3/1 47/3/1
f 50/3/1 48/3/1 49/3/1
f 51/6/2 52/6/2 53/6/2
f 53/6/2 52/6/2 54/6/2
f 55/2/2 56/2/2 57/2/2
f 57/2/2 56/2/2 58/2/2
f 59/6/2 60/6/2 61/6/2
f 61/6/2 60/6/2 62/6/2
f 63/6/2 64/6/2 65/6/2
f 65/6/2 64/6/2 66/6/2
f 58/2/2 56/2/2 67/2/2
f 67/2/2 56/2/2 68/2/2
f 67/4/2 68/4/2 69/4/2
f 69/4/2 68/4/2 70/4/2
f 71/2/2 72/2/2 73/2/2
f 73/2/2 72/2/2 74/2/2
f 74/2/2 72/2/2 75/2/2
f 73/6/2 74/6/2 77/6/2
f 75/2/2 76/2/2 78/2/2
f 77/6/2 74/6/2 78/6/2
f 74/2/2 75/2/2 78/2/2
f 78/2/2 76/2/2 79/2/2
f 77/7/2 78/7/2 80/7/2
f 78/6/2 79/6/2 81/6/2
f 80/7/2 78/7/2 81/7/2
f 79/2/2 76/2/2 82/2/2
f 81/6/2 79/6/2 82/6/2
f 77/7/2 80/7/2 85/7/2
f 80/6/2 81/6/2 86/6/2
f 85/7/2 80/7/2 86/7/2
f 81/2/2 82/2/2 87/2/2
f 86/6/2 81/6/2 87/6/2
f 82/2/2 76/2/2 88/2/2
f 87/2/2 82/2/2 88/2/2
f 88/2/2 76/2/2 89/2/2
f 83/3/2 84/3/2 90/3/2
f 90/3/2 84/3/2 91/3/2
f 92/3/2 93/3/2 96/3/2
f 96/3/2 93/3/2 97/3/2
f 94/3/2 95/3/2 98/3/2
f 98/3/2 95/3/2 99/3/2
f 100/3/2 101/3/2 103/3/2
f 102/3/2 103/3/2 104/3/2
f 103/3/2 101/3/2 105/3/2
f 104/3/2 103/3/2 105/3/2
f 108/3/3 107/3/3 106/3/3
f 109/3/3 107/3/3 108/3/3
f 115/4/3 111/4/3 110/4/3
f 116/6/3 113/6/3 112/6/3
f 117/6/3 113/6/3 116/6/3
f 118/6/3 115/6/3 114/6/3
f 119/4/3 111/4/3 115/4/3
f 119/6/3 115/6/3 118/6/3
f 120/2/3 117/2/3 116/2/3
f 120/6/3 118/6/3 117/6/3
f 121/4/3 119/4/3 118/4/3
f 121/6/3 118/6/3 120/6/3
f 122/2/3 121/2/3 120/2/3
f 122/4/3 119/4/3 121/4/3
f 123/4/3 111/4/3 119/4/3
f 123/4/3 119/4/3 122/4/3
f 124/2/3 122/2/3 120/2/3
f 124/5/3 123/5/3 122/5/3
f 125/4/3 111/4/3 123/4/3
f 125/5/3 123/5/3 124/5/3
f 126/2/3 124/2/3 120/2/3
f 126/1/3 125/1/3 124/1/3
f 127/4/3 111/4/3 125/4/3
f 127/1/3 125/1/3 126/1/3
f 128/2/3 126/2/3 120/2/3
f 128/2/3 120/2/3 116/2/3
f 129/4/3 127/4/3 126/4/3
f 129/2/3 126/2/3 128/2/3
f 130/2/3 128/2/3 116/2/3
f 131/6/3 129/6/3 128/6/3
f 131/2/3 128/2/3 130/2/3
f 132/4/3 127/4/3 129/4/3
f 132/6/3 129/6/3 131/6/3
f 133/4/3 127/4/3 132/4/3
f 134/6/3 131/6/3 130/6/3
f 135/6/3 131/6/3 134/6/3
f 136/6/3 133/6/3 132/6/3
f 137/4/3 127/4/3 133/4/3
f 137/6/3 133/6/3 136/6/3
f 138/4/3 111/4/3 127/4/3
f 138/4/3 127/4/3 137/4/3
f 141/3/3 140/3/3 139/3/3
f 142/3/3 140/3/3 141/3/3
f 143/3/3 140/3/3 142/3/3
f 144/3/3 140/3/3 143/3/3
f 150/4/3 146/4/3 145/4/3
f 151/4/3 146/4/3 150/4/3
f 152/6/3 149/6/3 148/6/3
f 152/7/3 150/7/3 149/7/3
f 153/7/3 150/7/3 152/7/3
f 154/7/3 150/7/3 153/7/3
f 155/7/3 150/7/3 154/7/3
f 156/2/3 148/2/3 147/2/3
f 156/6/3 152/6/3 148/6/3
f 157/6/3 152/6/3 156/6/3
f 158/7/3 154/7/3 153/7/3
f 159/7/3 154/7/3 158/7/3
f 160/2/3 157/2/3 156/2/3
f 160/2/3 156/2/3 147/2/3
f 161/2/3 157/2/3 160/2/3
f 164/6/3 161/6/3 160/6/3
f 165/7/3 163/7/3 162/7/3
f 166/7/3 163/7/3 165/7/3
f 168/2/3 160/2/3 147/2/3
f 169/6/3 164/6/3 160/6/3
f 169/2/3 160/2/3 168/2/3
f 170/7/3 166/7/3 165/7/3
f 170/6/3 164/6/3 169/6/3
f 170/7/3 167/7/3 166/7/3
f 170/7/3 165/7/3 164/7/3
f 171/7/3 167/7/3 170/7/3
f 174/3/3 173/3/3 172/3/3
f 175/3/3 173/3/3 174/3/3
f 176/4/4 177/4/4 180/4/4
f 180/4/4 177/4/4 181/4/4
f 178/2/4 179/2/4 182/2/4
f 182/2/4 179/2/4 183/2/4
f 184/2/4 185/2/4 186/2/4
f 186/2/4 185/2/4 187/2/4
f 188/3/4 189/3/4 190/3/4
f 190/3/4 189/3/4 191/3/4
f 192/2/4 193/2/4 195/2/4
f 193/4/4 194/4/4 196/4/4
f 195/2/4 193/2/4 196/2/4
f 196/4/4 194/4/4 197/4/4
f 197/4/4 194/4/4 200/4/4
f 198/2/4 199/2/4 201/2/4
f 199/4/4 200/4/4 202/4/4
f 201/2/4 199/2/4 202/2/4
f 200/4/4 194/4/4 203/4/4
f 202/4/4 200/4/4 203/4/4
f 202/3/4 203/3/4 204/3/4
f 204/3/4 203/3/4 205/3/4
f 206/2/4 207/2/4 209/2/4
f 207/4/4 208/4/4 210/4/4
f 209/2/4 207/2/4 210/2/4
f 210/4/4 208/4/4 211/4/4
f 214/2/5 213/2/5 212/2/5
f 215/2/5 213/2/5 214/2/5
f 216/2/5 213/2/5 215/2/5
f 217/2/5 213/2/5 216/2/5
f 218/2/5 216/2/5 215/2/5
f 219/2/5 216/2/5 218/2/5
f 224/2/5 221/2/5 220/2/5
f 225/2/5 221/2/5 224/2/5
f 226/2/5 223/2/5 222/2/5
f 227/2/5 223/2/5 226/2/5
f 232/6/5 229/6/5 228/6/5
f 233/2/5 230/2/5 229/2/5
f 233/6/5 229/6/5 232/6/5
f 234/6/5 231/6/5 230/6/5
f 234/2/5 230/2/5 233/2/5
f 235/6/5 231/6/5 234/6/5
f 240/6/5 237/6/5 236/6/5
f 241/6/5 237/6/5 240/6/5
f 242/6/5 239/6/5 238/6/5
f 243/6/5 239/6/5 242/6/5
f 248/3/5 245/3/5 244/3/5
f 249/3/5 245/3/5 248/3/5
f 252/4/5 247/4/5 246/4/5
f 253/4/5 247/4/5 252/4/5
f 254/4/5 249/4/5 248/4/5
f 255/3/5 250/3/5 249/3/5
f 255/4/5 249/4/5 254/4/5
f 256/3/5 250/3/5 255/3/5
f 258/4/5 252/4/5 251/4/5
f 259/4/5 256/4/5 255/4/5
f 260/4/5 258/4/5 251/4/5
f 261/4/5 256/4/5 259/4/5
f 262/4/5 260/4/5 251/4/5
f 263/4/5 260/4/5 262/4/5
f 264/4/5 256/4/5 261/4/5
f 265/3/5 257/3/5 256/3/5
f 265/4/5 256/4/5 264/4/5
f 266/3/5 257/3/5 265/3/5
f 267/3/5 265/3/5 264/3/5
f 268/3/5 265/3/5 267/3/5
f 271/3/5 270/3/5 269/3/5
f 272/3/5 270/3/5 271/3/5
f 273/6/6 274/6/6 277/6/6
f 277/6/6 274/6/6 278/6/6
f 275/6/6 276/6/6 279/6/6
f 279/6/6 276/6/6 280/6/6
f 281/4/6 282/4/6 283/4/6
f 283/4/6 282/4/6 284/4/6
f 285/3/6 286/3/6 288/3/6
f 288/3/6 286/3/6 289/3/6
f 287/4/6 288/4/6 292/4/6
f 288/4/6 289/4/6 292/4/6
f 289/3/6 290/3/6 293/3/6
f 292/4/6 289/4/6 293/4/6
f 293/3/6 290/3/6 294/3/6
f 291/4/6 292/4/6 295/4/6
f 292/4/6 293/4/6 295/4/6
f 293/4/6 294/4/6 295/4/6
f 295/4/6 294/4/6 296/4/6
f 296/4/6 294/4/6 297/4/6
f 294/3/6 290/3/6 298/3/6
f 297/4/6 294/4/6 298/4/6
f 298/3/6 290/3/6 299/3/6
f 296/4/6 297/4/6 300/4/6
f 297/3/6 298/3/6 301/3/6
f 300/4/6 297/4/6 301/4/6
f 301/3/6 298/3/6 302/3/6
