# MagicaVoxel @ Ephtracy

# group
o 

# material
mtllib Blue_Jam.mtl
usemtl palette

# normals
vn -1 0 0
vn 1 0 0
vn 0 0 1
vn 0 0 -1
vn 0 -1 0
vn 0 1 0

# texcoords
vt 0.587891 0.5
vt 0.994141 0.5

# verts
v -0.4 1.5 0.3
v -0.4 1.5 0.2
v -0.4 1.6 0.4
v -0.4 1.6 0.3
v -0.4 1.6 0.2
v -0.4 1.6 0.1
v -0.4 2.3 0.4
v -0.4 2.3 0.3
v -0.4 2.3 0.2
v -0.4 2.3 0.1
v -0.4 2.4 0.3
v -0.4 2.4 0.2
v -0.3 1.4 0.5
v -0.3 1.4 0
v -0.3 1.5 0.3
v -0.3 1.5 0.2
v -0.3 1.6 0.4
v -0.3 1.6 0.3
v -0.3 1.6 0.2
v -0.3 1.6 0.1
v -0.3 2.3 0.4
v -0.3 2.3 0.3
v -0.3 2.3 0.2
v -0.3 2.3 0.1
v -0.3 2.4 0.5
v -0.3 2.4 0.4
v -0.3 2.4 0.3
v -0.3 2.4 0.2
v -0.3 2.4 0.1
v -0.3 2.4 0
v -0.3 2.5 0.4
v -0.3 2.5 0.1
v -0.2 1.3 0.5
v -0.2 1.3 0
v -0.2 1.4 0.5
v -0.2 1.4 0
v -0.2 2.5 0.4
v -0.2 2.5 0.1
v -0.2 2.6 0.4
v -0.2 2.6 0.1
v -0.1 1.2 0.4
v -0.1 1.2 0.1
v -0.1 1.3 0.4
v -0.1 1.3 0.1
v -0.1 2.6 0.4
v -0.1 2.6 0.1
v -0.1 2.7 0.4
v -0.1 2.7 0.1
v 0 1.2 0.5
v 0 1.2 0.4
v 0 1.2 0.1
v 0 1.2 0
v 0 1.3 0.5
v 0 1.3 0.4
v 0 1.3 0.1
v 0 1.3 0
v 0 2.4 0.5
v 0 2.4 0.4
v 0 2.4 0.1
v 0 2.4 0
v 0 2.6 0.5
v 0 2.6 0.4
v 0 2.6 0.1
v 0 2.6 0
v 0 2.7 0.5
v 0 2.7 0.4
v 0 2.7 0.1
v 0 2.7 0
v 0.4 1.2 0.5
v 0.4 1.2 0.4
v 0.4 1.2 0.1
v 0.4 1.2 0
v 0.4 1.3 0.5
v 0.4 1.3 0.4
v 0.4 1.3 0.1
v 0.4 1.3 0
v 0.4 2.4 0.5
v 0.4 2.4 0.4
v 0.4 2.4 0.1
v 0.4 2.4 0
v 0.4 2.6 0.5
v 0.4 2.6 0.4
v 0.4 2.6 0.1
v 0.4 2.6 0
v 0.4 2.7 0.5
v 0.4 2.7 0.4
v 0.4 2.7 0.1
v 0.4 2.7 0
v 0.5 1.2 0.4
v 0.5 1.2 0.1
v 0.5 1.3 0.4
v 0.5 1.3 0.1
v 0.5 2.6 0.4
v 0.5 2.6 0.1
v 0.5 2.7 0.4
v 0.5 2.7 0.1
v 0.6 1.3 0.5
v 0.6 1.3 0
v 0.6 1.4 0.5
v 0.6 1.4 0
v 0.6 2.5 0.4
v 0.6 2.5 0.1
v 0.6 2.6 0.4
v 0.6 2.6 0.1
v 0.7 1.4 0.5
v 0.7 1.4 0
v 0.7 1.5 0.3
v 0.7 1.5 0.2
v 0.7 1.6 0.4
v 0.7 1.6 0.3
v 0.7 1.6 0.2
v 0.7 1.6 0.1
v 0.7 2.3 0.4
v 0.7 2.3 0.3
v 0.7 2.3 0.2
v 0.7 2.3 0.1
v 0.7 2.4 0.5
v 0.7 2.4 0.4
v 0.7 2.4 0.3
v 0.7 2.4 0.2
v 0.7 2.4 0.1
v 0.7 2.4 0
v 0.7 2.5 0.4
v 0.7 2.5 0.1
v 0.8 1.5 0.3
v 0.8 1.5 0.2
v 0.8 1.6 0.4
v 0.8 1.6 0.3
v 0.8 1.6 0.2
v 0.8 1.6 0.1
v 0.8 2.3 0.4
v 0.8 2.3 0.3
v 0.8 2.3 0.2
v 0.8 2.3 0.1
v 0.8 2.4 0.3
v 0.8 2.4 0.2
v -0.3 1.4 0.5
v -0.3 2.4 0.5
v -0.2 1.3 0.5
v -0.2 1.4 0.5
v 0 1.2 0.5
v 0 1.3 0.5
v 0 2.4 0.5
v 0 2.6 0.5
v 0 2.7 0.5
v 0.4 1.2 0.5
v 0.4 1.3 0.5
v 0.4 2.4 0.5
v 0.4 2.6 0.5
v 0.4 2.7 0.5
v 0.6 1.3 0.5
v 0.6 1.4 0.5
v 0.7 1.4 0.5
v 0.7 2.4 0.5
v -0.4 1.6 0.4
v -0.4 2.3 0.4
v -0.3 1.6 0.4
v -0.3 2.3 0.4
v -0.3 2.4 0.4
v -0.3 2.5 0.4
v -0.2 2.5 0.4
v -0.2 2.6 0.4
v -0.1 1.2 0.4
v -0.1 1.3 0.4
v -0.1 2.6 0.4
v -0.1 2.7 0.4
v 0 1.2 0.4
v 0 1.3 0.4
v 0 2.4 0.4
v 0 2.6 0.4
v 0 2.7 0.4
v 0.4 1.2 0.4
v 0.4 1.3 0.4
v 0.4 2.4 0.4
v 0.4 2.6 0.4
v 0.4 2.7 0.4
v 0.5 1.2 0.4
v 0.5 1.3 0.4
v 0.5 2.6 0.4
v 0.5 2.7 0.4
v 0.6 2.5 0.4
v 0.6 2.6 0.4
v 0.7 1.6 0.4
v 0.7 2.3 0.4
v 0.7 2.4 0.4
v 0.7 2.5 0.4
v 0.8 1.6 0.4
v 0.8 2.3 0.4
v -0.4 1.5 0.3
v -0.4 1.6 0.3
v -0.4 2.3 0.3
v -0.4 2.4 0.3
v -0.3 1.5 0.3
v -0.3 1.6 0.3
v -0.3 2.3 0.3
v -0.3 2.4 0.3
v 0.7 1.5 0.3
v 0.7 1.6 0.3
v 0.7 2.3 0.3
v 0.7 2.4 0.3
v 0.8 1.5 0.3
v 0.8 1.6 0.3
v 0.8 2.3 0.3
v 0.8 2.4 0.3
v -0.4 1.5 0.2
v -0.4 1.6 0.2
v -0.4 2.3 0.2
v -0.4 2.4 0.2
v -0.3 1.5 0.2
v -0.3 1.6 0.2
v -0.3 2.3 0.2
v -0.3 2.4 0.2
v 0.7 1.5 0.2
v 0.7 1.6 0.2
v 0.7 2.3 0.2
v 0.7 2.4 0.2
v 0.8 1.5 0.2
v 0.8 1.6 0.2
v 0.8 2.3 0.2
v 0.8 2.4 0.2
v -0.4 1.6 0.1
v -0.4 2.3 0.1
v -0.3 1.6 0.1
v -0.3 2.3 0.1
v -0.3 2.4 0.1
v -0.3 2.5 0.1
v -0.2 2.5 0.1
v -0.2 2.6 0.1
v -0.1 1.2 0.1
v -0.1 1.3 0.1
v -0.1 2.6 0.1
v -0.1 2.7 0.1
v 0 1.2 0.1
v 0 1.3 0.1
v 0 2.4 0.1
v 0 2.6 0.1
v 0 2.7 0.1
v 0.4 1.2 0.1
v 0.4 1.3 0.1
v 0.4 2.4 0.1
v 0.4 2.6 0.1
v 0.4 2.7 0.1
v 0.5 1.2 0.1
v 0.5 1.3 0.1
v 0.5 2.6 0.1
v 0.5 2.7 0.1
v 0.6 2.5 0.1
v 0.6 2.6 0.1
v 0.7 1.6 0.1
v 0.7 2.3 0.1
v 0.7 2.4 0.1
v 0.7 2.5 0.1
v 0.8 1.6 0.1
v 0.8 2.3 0.1
v -0.3 1.4 0
v -0.3 2.4 0
v -0.2 1.3 0
v -0.2 1.4 0
v 0 1.2 0
v 0 1.3 0
v 0 2.4 0
v 0 2.6 0
v 0 2.7 0
v 0.4 1.2 0
v 0.4 1.3 0
v 0.4 2.4 0
v 0.4 2.6 0
v 0.4 2.7 0
v 0.6 1.3 0
v 0.6 1.4 0
v 0.7 1.4 0
v 0.7 2.4 0
v 0 1.2 0.5
v 0.4 1.2 0.5
v -0.1 1.2 0.4
v 0 1.2 0.4
v 0.4 1.2 0.4
v 0.5 1.2 0.4
v -0.1 1.2 0.1
v 0 1.2 0.1
v 0.4 1.2 0.1
v 0.5 1.2 0.1
v 0 1.2 0
v 0.4 1.2 0
v -0.2 1.3 0.5
v 0 1.3 0.5
v 0.4 1.3 0.5
v 0.6 1.3 0.5
v -0.1 1.3 0.4
v 0 1.3 0.4
v 0.4 1.3 0.4
v 0.5 1.3 0.4
v -0.1 1.3 0.1
v 0 1.3 0.1
v 0.4 1.3 0.1
v 0.5 1.3 0.1
v -0.2 1.3 0
v 0 1.3 0
v 0.4 1.3 0
v 0.6 1.3 0
v -0.3 1.4 0.5
v -0.2 1.4 0.5
v 0.6 1.4 0.5
v 0.7 1.4 0.5
v -0.3 1.4 0
v -0.2 1.4 0
v 0.6 1.4 0
v 0.7 1.4 0
v -0.4 1.5 0.3
v -0.3 1.5 0.3
v 0.7 1.5 0.3
v 0.8 1.5 0.3
v -0.4 1.5 0.2
v -0.3 1.5 0.2
v 0.7 1.5 0.2
v 0.8 1.5 0.2
v -0.4 1.6 0.4
v -0.3 1.6 0.4
v 0.7 1.6 0.4
v 0.8 1.6 0.4
v -0.4 1.6 0.3
v -0.3 1.6 0.3
v 0.7 1.6 0.3
v 0.8 1.6 0.3
v -0.4 1.6 0.2
v -0.3 1.6 0.2
v 0.7 1.6 0.2
v 0.8 1.6 0.2
v -0.4 1.6 0.1
v -0.3 1.6 0.1
v 0.7 1.6 0.1
v 0.8 1.6 0.1
v -0.4 2.3 0.4
v -0.3 2.3 0.4
v 0.7 2.3 0.4
v 0.8 2.3 0.4
v -0.4 2.3 0.3
v -0.3 2.3 0.3
v 0.7 2.3 0.3
v 0.8 2.3 0.3
v -0.4 2.3 0.2
v -0.3 2.3 0.2
v 0.7 2.3 0.2
v 0.8 2.3 0.2
v -0.4 2.3 0.1
v -0.3 2.3 0.1
v 0.7 2.3 0.1
v 0.8 2.3 0.1
v -0.3 2.4 0.5
v 0 2.4 0.5
v 0.4 2.4 0.5
v 0.7 2.4 0.5
v -0.3 2.4 0.4
v 0 2.4 0.4
v 0.4 2.4 0.4
v 0.7 2.4 0.4
v -0.4 2.4 0.3
v -0.3 2.4 0.3
v 0.7 2.4 0.3
v 0.8 2.4 0.3
v -0.4 2.4 0.2
v -0.3 2.4 0.2
v 0.7 2.4 0.2
v 0.8 2.4 0.2
v -0.3 2.4 0.1
v 0 2.4 0.1
v 0.4 2.4 0.1
v 0.7 2.4 0.1
v -0.3 2.4 0
v 0 2.4 0
v 0.4 2.4 0
v 0.7 2.4 0
v -0.3 2.5 0.4
v -0.2 2.5 0.4
v 0.6 2.5 0.4
v 0.7 2.5 0.4
v -0.3 2.5 0.1
v -0.2 2.5 0.1
v 0.6 2.5 0.1
v 0.7 2.5 0.1
v -0.2 2.6 0.4
v -0.1 2.6 0.4
v 0.5 2.6 0.4
v 0.6 2.6 0.4
v -0.2 2.6 0.1
v -0.1 2.6 0.1
v 0.5 2.6 0.1
v 0.6 2.6 0.1
v 0 2.7 0.5
v 0.4 2.7 0.5
v -0.1 2.7 0.4
v 0 2.7 0.4
v 0.4 2.7 0.4
v 0.5 2.7 0.4
v -0.1 2.7 0.1
v 0 2.7 0.1
v 0.4 2.7 0.1
v 0.5 2.7 0.1
v 0 2.7 0
v 0.4 2.7 0

# faces
f 4/1/1 2/1/1 1/1/1
f 5/1/1 2/1/1 4/1/1
f 7/1/1 4/1/1 3/1/1
f 7/1/1 6/1/1 5/1/1
f 7/1/1 5/1/1 4/1/1
f 8/1/1 6/1/1 7/1/1
f 9/1/1 6/1/1 8/1/1
f 10/1/1 6/1/1 9/1/1
f 11/1/1 9/1/1 8/1/1
f 12/1/1 9/1/1 11/1/1
f 15/1/1 14/1/1 13/1/1
f 16/1/1 14/1/1 15/1/1
f 17/1/1 15/1/1 13/1/1
f 18/1/1 15/1/1 17/1/1
f 19/1/1 14/1/1 16/1/1
f 20/1/1 14/1/1 19/1/1
f 21/1/1 17/1/1 13/1/1
f 24/1/1 14/1/1 20/1/1
f 25/1/1 22/1/1 21/1/1
f 25/1/1 21/1/1 13/1/1
f 26/1/1 22/1/1 25/1/1
f 27/1/1 22/1/1 26/1/1
f 28/1/1 24/1/1 23/1/1
f 29/1/1 14/1/1 24/1/1
f 29/1/1 24/1/1 28/1/1
f 30/1/1 14/1/1 29/1/1
f 31/1/1 27/1/1 26/1/1
f 31/1/1 28/1/1 27/1/1
f 31/1/1 29/1/1 28/1/1
f 32/1/1 29/1/1 31/1/1
f 35/1/1 34/1/1 33/1/1
f 36/1/1 34/1/1 35/1/1
f 39/1/1 38/1/1 37/1/1
f 40/1/1 38/1/1 39/1/1
f 43/2/1 42/2/1 41/2/1
f 44/2/1 42/2/1 43/2/1
f 47/2/1 46/2/1 45/2/1
f 48/2/1 46/2/1 47/2/1
f 53/2/1 50/2/1 49/2/1
f 54/2/1 50/2/1 53/2/1
f 55/2/1 52/2/1 51/2/1
f 56/2/1 52/2/1 55/2/1
f 61/1/1 58/1/1 57/1/1
f 62/1/1 58/1/1 61/1/1
f 63/1/1 60/1/1 59/1/1
f 64/1/1 60/1/1 63/1/1
f 65/2/1 62/2/1 61/2/1
f 66/2/1 62/2/1 65/2/1
f 67/2/1 64/2/1 63/2/1
f 68/2/1 64/2/1 67/2/1
f 69/2/2 70/2/2 73/2/2
f 73/2/2 70/2/2 74/2/2
f 71/2/2 72/2/2 75/2/2
f 75/2/2 72/2/2 76/2/2
f 77/1/2 78/1/2 81/1/2
f 81/1/2 78/1/2 82/1/2
f 79/1/2 80/1/2 83/1/2
f 83/1/2 80/1/2 84/1/2
f 81/2/2 82/2/2 85/2/2
f 85/2/2 82/2/2 86/2/2
f 83/2/2 84/2/2 87/2/2
f 87/2/2 84/2/2 88/2/2
f 89/2/2 90/2/2 91/2/2
f 91/2/2 90/2/2 92/2/2
f 93/2/2 94/2/2 95/2/2
f 95/2/2 94/2/2 96/2/2
f 97/1/2 98/1/2 99/1/2
f 99/1/2 98/1/2 100/1/2
f 101/1/2 102/1/2 103/1/2
f 103/1/2 102/1/2 104/1/2
f 105/1/2 106/1/2 107/1/2
f 107/1/2 106/1/2 108/1/2
f 105/1/2 107/1/2 109/1/2
f 109/1/2 107/1/2 110/1/2
f 108/1/2 106/1/2 111/1/2
f 111/1/2 106/1/2 112/1/2
f 105/1/2 109/1/2 113/1/2
f 112/1/2 106/1/2 116/1/2
f 113/1/2 114/1/2 117/1/2
f 105/1/2 113/1/2 117/1/2
f 117/1/2 114/1/2 118/1/2
f 118/1/2 114/1/2 119/1/2
f 115/1/2 116/1/2 120/1/2
f 116/1/2 106/1/2 121/1/2
f 120/1/2 116/1/2 121/1/2
f 121/1/2 106/1/2 122/1/2
f 118/1/2 119/1/2 123/1/2
f 119/1/2 120/1/2 123/1/2
f 120/1/2 121/1/2 123/1/2
f 123/1/2 121/1/2 124/1/2
f 125/1/2 126/1/2 128/1/2
f 128/1/2 126/1/2 129/1/2
f 127/1/2 128/1/2 131/1/2
f 129/1/2 130/1/2 131/1/2
f 128/1/2 129/1/2 131/1/2
f 131/1/2 130/1/2 132/1/2
f 132/1/2 130/1/2 133/1/2
f 133/1/2 130/1/2 134/1/2
f 132/1/2 133/1/2 135/1/2
f 135/1/2 133/1/2 136/1/2
f 140/1/3 138/1/3 137/1/3
f 142/1/3 140/1/3 139/1/3
f 143/1/3 138/1/3 140/1/3
f 143/1/3 140/1/3 142/1/3
f 146/2/3 142/2/3 141/2/3
f 147/1/3 143/1/3 142/1/3
f 147/2/3 142/2/3 146/2/3
f 147/1/3 144/1/3 143/1/3
f 148/1/3 144/1/3 147/1/3
f 149/2/3 145/2/3 144/2/3
f 149/1/3 144/1/3 148/1/3
f 150/2/3 145/2/3 149/2/3
f 151/1/3 148/1/3 147/1/3
f 152/1/3 148/1/3 151/1/3
f 153/1/3 148/1/3 152/1/3
f 154/1/3 148/1/3 153/1/3
f 157/1/3 156/1/3 155/1/3
f 158/1/3 156/1/3 157/1/3
f 161/1/3 160/1/3 159/1/3
f 165/1/3 162/1/3 161/1/3
f 167/2/3 164/2/3 163/2/3
f 168/2/3 164/2/3 167/2/3
f 169/1/3 161/1/3 159/1/3
f 169/1/3 165/1/3 161/1/3
f 170/2/3 166/2/3 165/2/3
f 170/1/3 165/1/3 169/1/3
f 171/2/3 166/2/3 170/2/3
f 177/2/3 173/2/3 172/2/3
f 178/2/3 173/2/3 177/2/3
f 179/2/3 176/2/3 175/2/3
f 179/1/3 175/1/3 174/1/3
f 180/2/3 176/2/3 179/2/3
f 181/1/3 179/1/3 174/1/3
f 182/1/3 179/1/3 181/1/3
f 185/1/3 181/1/3 174/1/3
f 186/1/3 181/1/3 185/1/3
f 187/1/3 184/1/3 183/1/3
f 188/1/3 184/1/3 187/1/3
f 193/1/3 190/1/3 189/1/3
f 194/1/3 190/1/3 193/1/3
f 195/1/3 192/1/3 191/1/3
f 196/1/3 192/1/3 195/1/3
f 201/1/3 198/1/3 197/1/3
f 202/1/3 198/1/3 201/1/3
f 203/1/3 200/1/3 199/1/3
f 204/1/3 200/1/3 203/1/3
f 205/1/4 206/1/4 209/1/4
f 209/1/4 206/1/4 210/1/4
f 207/1/4 208/1/4 211/1/4
f 211/1/4 208/1/4 212/1/4
f 213/1/4 214/1/4 217/1/4
f 217/1/4 214/1/4 218/1/4
f 215/1/4 216/1/4 219/1/4
f 219/1/4 216/1/4 220/1/4
f 221/1/4 222/1/4 223/1/4
f 223/1/4 222/1/4 224/1/4
f 225/1/4 226/1/4 227/1/4
f 227/1/4 228/1/4 231/1/4
f 229/2/4 230/2/4 233/2/4
f 233/2/4 230/2/4 234/2/4
f 225/1/4 227/1/4 235/1/4
f 227/1/4 231/1/4 235/1/4
f 231/2/4 232/2/4 236/2/4
f 235/1/4 231/1/4 236/1/4
f 236/2/4 232/2/4 237/2/4
f 238/2/4 239/2/4 243/2/4
f 243/2/4 239/2/4 244/2/4
f 241/2/4 242/2/4 245/2/4
f 240/1/4 241/1/4 245/1/4
f 245/2/4 242/2/4 246/2/4
f 240/1/4 245/1/4 247/1/4
f 247/1/4 245/1/4 248/1/4
f 240/1/4 247/1/4 251/1/4
f 251/1/4 247/1/4 252/1/4
f 249/1/4 250/1/4 253/1/4
f 253/1/4 250/1/4 254/1/4
f 255/1/4 256/1/4 258/1/4
f 257/1/4 258/1/4 260/1/4
f 258/1/4 256/1/4 261/1/4
f 260/1/4 258/1/4 261/1/4
f 259/2/4 260/2/4 264/2/4
f 260/1/4 261/1/4 265/1/4
f 264/2/4 260/2/4 265/2/4
f 261/1/4 262/1/4 265/1/4
f 265/1/4 262/1/4 266/1/4
f 262/2/4 263/2/4 267/2/4
f 266/1/4 262/1/4 267/1/4
f 267/2/4 263/2/4 268/2/4
f 265/1/4 266/1/4 269/1/4
f 269/1/4 266/1/4 270/1/4
f 270/1/4 266/1/4 271/1/4
f 271/1/4 266/1/4 272/1/4
f 276/2/5 274/2/5 273/2/5
f 277/2/5 274/2/5 276/2/5
f 279/2/5 276/2/5 275/2/5
f 280/1/5 277/1/5 276/1/5
f 280/2/5 276/2/5 279/2/5
f 281/2/5 278/2/5 277/2/5
f 281/1/5 277/1/5 280/1/5
f 282/2/5 278/2/5 281/2/5
f 283/2/5 281/2/5 280/2/5
f 284/2/5 281/2/5 283/2/5
f 289/1/5 286/1/5 285/1/5
f 290/1/5 286/1/5 289/1/5
f 291/1/5 288/1/5 287/1/5
f 292/1/5 288/1/5 291/1/5
f 293/1/5 289/1/5 285/1/5
f 296/1/5 288/1/5 292/1/5
f 297/1/5 294/1/5 293/1/5
f 297/1/5 293/1/5 285/1/5
f 298/1/5 294/1/5 297/1/5
f 299/1/5 296/1/5 295/1/5
f 300/1/5 288/1/5 296/1/5
f 300/1/5 296/1/5 299/1/5
f 305/1/5 302/1/5 301/1/5
f 306/1/5 302/1/5 305/1/5
f 307/1/5 304/1/5 303/1/5
f 308/1/5 304/1/5 307/1/5
f 313/1/5 310/1/5 309/1/5
f 314/1/5 310/1/5 313/1/5
f 315/1/5 312/1/5 311/1/5
f 316/1/5 312/1/5 315/1/5
f 321/1/5 318/1/5 317/1/5
f 322/1/5 318/1/5 321/1/5
f 323/1/5 320/1/5 319/1/5
f 324/1/5 320/1/5 323/1/5
f 329/1/5 326/1/5 325/1/5
f 330/1/5 326/1/5 329/1/5
f 331/1/5 328/1/5 327/1/5
f 332/1/5 328/1/5 331/1/5
f 333/1/6 334/1/6 337/1/6
f 337/1/6 334/1/6 338/1/6
f 335/1/6 336/1/6 339/1/6
f 339/1/6 336/1/6 340/1/6
f 341/1/6 342/1/6 345/1/6
f 345/1/6 342/1/6 346/1/6
f 343/1/6 344/1/6 347/1/6
f 347/1/6 344/1/6 348/1/6
f 349/1/6 350/1/6 353/1/6
f 353/1/6 350/1/6 354/1/6
f 351/1/6 352/1/6 355/1/6
f 355/1/6 352/1/6 356/1/6
f 357/1/6 358/1/6 361/1/6
f 361/1/6 358/1/6 362/1/6
f 359/1/6 360/1/6 363/1/6
f 363/1/6 360/1/6 364/1/6
f 365/1/6 366/1/6 369/1/6
f 369/1/6 366/1/6 370/1/6
f 367/1/6 368/1/6 371/1/6
f 371/1/6 368/1/6 372/1/6
f 373/1/6 374/1/6 377/1/6
f 377/1/6 374/1/6 378/1/6
f 375/1/6 376/1/6 379/1/6
f 379/1/6 376/1/6 380/1/6
f 381/1/6 382/1/6 385/1/6
f 385/1/6 382/1/6 386/1/6
f 383/1/6 384/1/6 387/1/6
f 387/1/6 384/1/6 388/1/6
f 389/2/6 390/2/6 392/2/6
f 392/2/6 390/2/6 393/2/6
f 391/2/6 392/2/6 395/2/6
f 392/1/6 393/1/6 396/1/6
f 395/2/6 392/2/6 396/2/6
f 393/2/6 394/2/6 397/2/6
f 396/1/6 393/1/6 397/1/6
f 397/2/6 394/2/6 398/2/6
f 396/2/6 397/2/6 399/2/6
f 399/2/6 397/2/6 400/2/6
