# MagicaVoxel @ Ephtracy

# group
o 

# material
mtllib Place(1).mtl
usemtl palette

# normals
vn -1 0 0
vn 1 0 0
vn 0 0 1
vn 0 0 -1
vn 0 -1 0
vn 0 1 0

# texcoords
vt 0.306641 0.5
vt 0.970703 0.5
vt 0.974609 0.5

# verts
v -5 0 5
v -5 0 -5
v -5 1.5 5
v -5 1.5 -5
v -5 4 5
v -5 4 -0.1
v -5 4.3 5
v -5 4.3 -0.1
v -5 10 -0.1
v -5 10 -5
v 5 0 5
v 5 0 -5
v 5 1.5 5
v 5 1.5 -5
v 5 4 5
v 5 4 -0.1
v 5 4.3 5
v 5 4.3 -0.1
v 5 10 -0.1
v 5 10 -5
v -5 0 5
v -5 1.5 5
v -5 4 5
v -5 4.3 5
v 5 0 5
v 5 1.5 5
v 5 4 5
v 5 4.3 5
v -5 4.3 -0.1
v -5 10 -0.1
v 5 4.3 -0.1
v 5 10 -0.1
v -5 0 -5
v -5 1.5 -5
v -5 10 -5
v 5 0 -5
v 5 1.5 -5
v 5 10 -5
v -5 0 5
v 5 0 5
v -5 0 -5
v 5 0 -5
v -5 4.3 5
v 5 4.3 5
v -5 4.3 -0.1
v 5 4.3 -0.1
v -5 10 -0.1
v 5 10 -0.1
v -5 10 -5
v 5 10 -5

# faces
f 3/2/1 2/2/1 1/2/1
f 4/2/1 2/2/1 3/2/1
f 5/1/1 4/1/1 3/1/1
f 6/1/1 4/1/1 5/1/1
f 7/3/1 6/3/1 5/3/1
f 8/1/1 4/1/1 6/1/1
f 8/3/1 6/3/1 7/3/1
f 9/1/1 4/1/1 8/1/1
f 10/1/1 4/1/1 9/1/1
f 11/2/2 12/2/2 13/2/2
f 13/2/2 12/2/2 14/2/2
f 13/1/2 14/1/2 15/1/2
f 15/1/2 14/1/2 16/1/2
f 15/3/2 16/3/2 17/3/2
f 16/1/2 14/1/2 18/1/2
f 17/3/2 16/3/2 18/3/2
f 18/1/2 14/1/2 19/1/2
f 19/1/2 14/1/2 20/1/2
f 25/2/3 22/2/3 21/2/3
f 26/1/3 23/1/3 22/1/3
f 26/2/3 22/2/3 25/2/3
f 27/3/3 24/3/3 23/3/3
f 27/1/3 23/1/3 26/1/3
f 28/3/3 24/3/3 27/3/3
f 31/1/3 30/1/3 29/1/3
f 32/1/3 30/1/3 31/1/3
f 33/2/4 34/2/4 36/2/4
f 34/1/4 35/1/4 37/1/4
f 36/2/4 34/2/4 37/2/4
f 37/1/4 35/1/4 38/1/4
f 41/2/5 40/2/5 39/2/5
f 42/2/5 40/2/5 41/2/5
f 43/3/6 44/3/6 45/3/6
f 45/3/6 44/3/6 46/3/6
f 47/1/6 48/1/6 49/1/6
f 49/1/6 48/1/6 50/1/6
